<svg xmlns="http://www.w3.org/2000/svg" xml:space="preserve" style="fill-rule:evenodd;clip-rule:evenodd;stroke-miterlimit:10" viewBox="0 0 2250 2250">
  <path d="M1142.33 1565.78c0 224.03-181.615 405.643-405.642 405.643-224.028 0-405.641-181.613-405.641-405.643 0-224.031 181.613-405.644 405.641-405.644 224.027 0 405.642 181.613 405.642 405.644M2180.72 892.843c0 312.621-253.433 566.051-566.051 566.051-312.618 0-566.048-253.43-566.048-566.051 0-312.622 253.43-566.052 566.048-566.052s566.051 253.43 566.051 566.052M759.269 844.701c0 119.468-96.849 216.316-216.315 216.316-119.467 0-216.315-96.848-216.315-216.316s96.848-216.316 216.315-216.316c119.466 0 216.315 96.848 216.315 216.316M1974.15 1852.89c0 76.351-61.896 138.246-138.247 138.246-76.35 0-138.246-61.895-138.246-138.246 0-76.352 61.896-138.247 138.246-138.247 76.351 0 138.247 61.895 138.247 138.247" style="fill:#f1f8e5;fill-rule:nonzero"/>
  <path d="M510.175 1852.89c0-134.052-108.833-242.886-242.885-242.886S24.405 1718.838 24.405 1852.89s108.833 242.885 242.885 242.885 242.885-108.833 242.885-242.885ZM2022.17 326.791c0-102.799-83.459-186.259-186.258-186.259-102.8 0-186.259 83.46-186.259 186.259 0 102.799 83.459 186.258 186.259 186.258 102.799 0 186.258-83.459 186.258-186.258Z" style="fill:none;stroke:#f8f9f8;stroke-width:12.5px"/>
  <path d="M1705.35 1447.26c0 224.026-181.607 405.631-405.63 405.631-224.036 0-405.656-181.605-405.656-405.631 0-224.038 181.62-405.656 405.656-405.656 224.023 0 405.63 181.618 405.63 405.656ZM1312.44 443.655c0 158.986-128.882 287.866-287.866 287.866-158.993 0-287.885-128.88-287.885-287.866 0-158.994 128.892-287.885 287.885-287.885 158.984 0 287.866 128.891 287.866 287.885Z" style="fill:none;fill-rule:nonzero;stroke:#f8f9f8;stroke-width:12.5px"/>
</svg>